<svg xmlns="http://www.w3.org/2000/svg" style="display:none">
  <defs>
    <linearGradient id="b1g" x1="12" y1="2" x2="168" y2="174" gradientUnits="userSpaceOnUse">
      <stop offset="0%"   stop-color="#c0392b"/>
      <stop offset="50%"  stop-color="#e8b84b"/>
      <stop offset="100%" stop-color="#c0392b"/>
    </linearGradient>
    <linearGradient id="b2g" x1="12" y1="2" x2="168" y2="174" gradientUnits="userSpaceOnUse">
      <stop offset="0%"   stop-color="#2980b9"/>
      <stop offset="100%" stop-color="#1a6b3a"/>
    </linearGradient>
    <linearGradient id="b3g" x1="12" y1="2" x2="168" y2="174" gradientUnits="userSpaceOnUse">
      <stop offset="0%"   stop-color="#c9922a"/>
      <stop offset="100%" stop-color="#e8b84b"/>
    </linearGradient>
    <symbol id="balloon-1" viewBox="0 0 180 240">
      <ellipse cx="90" cy="88" rx="78" ry="86" fill="url(#b1g)"/>
      <path d="M55 168 Q90 178 125 168 L115 198 Q90 210 65 198 Z" fill="#8B5CF6" opacity="0.6"/>
      <line x1="90"  y1="168" x2="90"  y2="205" stroke="#c9922a" stroke-width="1.5"/>
      <line x1="65"  y1="170" x2="80"  y2="205" stroke="#c9922a" stroke-width="1"/>
      <line x1="115" y1="170" x2="100" y2="205" stroke="#c9922a" stroke-width="1"/>
      <rect x="72" y="205" width="36" height="20" rx="2" fill="#8B5CF6" opacity="0.7"/>
    </symbol>
    <symbol id="balloon-2" viewBox="0 0 180 240">
      <ellipse cx="90" cy="88" rx="78" ry="86" fill="url(#b2g)"/>
      <path d="M55 168 Q90 178 125 168 L115 198 Q90 210 65 198 Z" fill="#2980b9" opacity="0.6"/>
      <line x1="90"  y1="168" x2="90"  y2="205" stroke="#c9922a" stroke-width="1.5"/>
      <line x1="65"  y1="170" x2="80"  y2="205" stroke="#c9922a" stroke-width="1"/>
      <line x1="115" y1="170" x2="100" y2="205" stroke="#c9922a" stroke-width="1"/>
      <rect x="72" y="205" width="36" height="20" rx="2" fill="#2980b9" opacity="0.7"/>
    </symbol>
    <symbol id="balloon-3" viewBox="0 0 180 240">
      <ellipse cx="90" cy="88" rx="78" ry="86" fill="url(#b3g)"/>
      <path d="M55 168 Q90 178 125 168 L115 198 Q90 210 65 198 Z" fill="#1a6b3a" opacity="0.6"/>
      <line x1="90"  y1="168" x2="90"  y2="205" stroke="#e8b84b" stroke-width="1.5"/>
      <line x1="65"  y1="170" x2="80"  y2="205" stroke="#e8b84b" stroke-width="1"/>
      <line x1="115" y1="170" x2="100" y2="205" stroke="#e8b84b" stroke-width="1"/>
      <rect x="72" y="205" width="36" height="20" rx="2" fill="#1a6b3a" opacity="0.7"/>
    </symbol>
  </defs>
</svg>
